<svg id="logo_tobbleKids_01" xmlns="http://www.w3.org/2000/svg" width="1734.125" height="1049.469" viewBox="0 0 1734.125 1049.469">
  <defs>
    <style>
      .cls-1 {
        fill: #00d7ed;
      }

      .cls-1, .cls-2, .cls-3, .cls-4, .cls-5, .cls-6, .cls-7, .cls-8 {
        fill-rule: evenodd;
      }

      .cls-2 {
        fill: #b6fcff;
      }

      .cls-3 {
        fill: #00c2cc;
      }

      .cls-4 {
        fill: #004568;
      }

      .cls-5 {
        fill: #ec008c;
      }

      .cls-6 {
        fill: #b3ea13;
      }

      .cls-7 {
        fill: #142f42;
      }

      .cls-8 {
        fill: #fff800;
      }
    </style>
  </defs>
  <g id="star">
    <path class="cls-1" d="M1610,1387c10.63-6.93,21.12-13.49,32-20,25.4-15.2,51.29-29.14,78-42a244.25,244.25,0,0,0,134-137c4.15-13.76,8.53-27.9,13-42,3.31-10.45,6.47-19.39,12-30,14.95-28.67,32.54-45.48,47-54,34.03-20.05,76.17-17.64,112-2,26.17,12.92,51.13,26.05,76,40,47.68,26.75,77.32,46,127,58,24.36,5.88,61.7,8.38,98,10,13.98,0.62,52.5,3.82,86,22a176.487,176.487,0,0,1,35,25q-25.005,50.505-50,101c-4.08,5.66-2.44,12.17,1,14,2.33,1.24,5.93.55,9-2l65-47a153.9,153.9,0,0,1-6,32c-10.63,35.38-30.61,56.16-49,76-14.26,15.38-25.3,30.04-40,45a908.84,908.84,0,0,1-88,79,917.694,917.694,0,0,1-167,104c-49.07,23.64-105.27,44.1-170,62-14.41,3.99-28.51,7.59-43,11-3,.67-6,1.33-9,2a16.865,16.865,0,0,1-8,1,20.987,20.987,0,0,1-6-2c-2.16-.96-8.32-1.81-15-1a41.183,41.183,0,0,0-22,10q-27.855,4.86-56,7a569,569,0,0,1-72,1,176.006,176.006,0,0,1-18-55,129.912,129.912,0,0,0-37-73c-8.84-8.77-17.23-14.45-26-20-8.31-5.26-24.85-15.82-33-21a241.95,241.95,0,0,1-21-16c-8.2-6.98-16.24-14.97-20-20-14.31-19.13-18.14-34.51-18-47C1561.32,1427.59,1581.6,1401.87,1610,1387Z" transform="translate(-775.875 -769.281)"/>
    <path class="cls-2" d="M2169,1149a201.945,201.945,0,0,0,134,40c7.71,0.8,13.56,6.96,14,14,0.5,8.03-6.12,15.59-15,16a225.427,225.427,0,0,1-96-15,222.768,222.768,0,0,1-52-29c-8.75-10.35-7.03-22.87-1-27C2157.02,1145.24,2163.37,1145.94,2169,1149Z" transform="translate(-775.875 -769.281)"/>
    <path class="cls-2" d="M2338,1184a17.133,17.133,0,1,1-15,17A17.359,17.359,0,0,1,2338,1184Z" transform="translate(-775.875 -769.281)"/>
    <path class="cls-3" d="M2476,1323a473.057,473.057,0,0,1-22,47c-6.57,12.21-12.54,22.25-18,35a252.34,252.34,0,0,0-16,52c-8.01,42.01-4.63,75.58,2,99a190.479,190.479,0,0,0,23,51,140.979,140.979,0,0,1,22,63q-13.995-1.995-28-4l-10-21a28.785,28.785,0,0,0-50-1q-4.995,10.995-10,22l-21,2c-11.93,1.8-21.29,10.26-24,21a28.408,28.408,0,0,0,6,25l18,18-4,19c-2.78,14.45,3.98,27.89,15,33,7.72,3.57,16.6,2.69,24-1q10.5-5.505,21-11l15,9a183.049,183.049,0,0,1-55,29c-23.54,7.65-51.53,11.1-84,7-15.94-2.01-40.59-8.86-65-19a333.9,333.9,0,0,1-35-17c-9.03-4.33-18.11-8.7-27-13-14.39-6.96-27.32-13.24-40-17-16.28-4.83-37.73-7.5-63-7-29.69.59-60.66,4.94-91,12-9.02,2.07-17.95,4.05-27,6-6.35,1.37-12.64,2.69-19,4a41.439,41.439,0,0,0-6-73,1036.259,1036.259,0,0,0,113-31c68.42-22.99,127.96-49.94,181-81,61.83-36.21,120.97-81.76,164-123q21.45-20.565,42-43c8-8.74,14.97-17.29,23-26,10.3-11.18,18.37-19.52,27-32A205.832,205.832,0,0,0,2476,1323Z" transform="translate(-775.875 -769.281)"/>
    <path class="cls-3" d="M1734,1708q33.045,1.11,66-1c21.14-1.35,42.08-3.68,63-7-12.55,12.02-16.92,29.25-12,44a43.037,43.037,0,0,0,22,25c-21.78-1.36-43.1-5.29-63-10-16.06-3.8-27.47-7.95-39-15A118.868,118.868,0,0,1,1734,1708Z" transform="translate(-775.875 -769.281)"/>
    <path class="cls-4" d="M2487,1196l23,47-73,54Z" transform="translate(-775.875 -769.281)"/>
    <path class="cls-5" d="M2372,1684a10.72,10.72,0,0,0,12-8q4.995-10.5,10-21a10.589,10.589,0,0,1,19-2q4.995,10.995,10,22a10.72,10.72,0,0,0,12,8q12,1.995,24,4a8.382,8.382,0,0,1,4,15q-8.505,9-17,18a10.124,10.124,0,0,0-4,12q1.995,13.005,4,26a9.3,9.3,0,0,1-3,8c-3.1,2.66-8.1,2.83-12,0q-10.005-4.995-20-10a13.25,13.25,0,0,0-14,0Q2387,1761,2377,1766a9.323,9.323,0,0,1-15-10q1.995-10.995,4-22a13.163,13.163,0,0,0,0-8,12.948,12.948,0,0,0-3-5q-9.495-9-19-18a9.7,9.7,0,0,1-3-10c1.09-3.64,4.92-5.98,9-7,3.67-.33,7.33-0.67,11-1S2368.33,1684.33,2372,1684Z" transform="translate(-775.875 -769.281)"/>
    <path class="cls-6" d="M1890,1705a26.5,26.5,0,1,1-26,27A26.784,26.784,0,0,1,1890,1705Z" transform="translate(-775.875 -769.281)"/>
  </g>
  <g id="tobble">
    <path class="cls-4" d="M818,800l268-13c22.98,2.219,40.78,20.874,42,43,1.3,23.58-16.55,45.047-41,48l-83,4,13,265c-1.04,25.83-21.73,46.68-47,48-26.067,1.36-49.306-18.46-52-45q-7-131.505-14-263l-84,4c-23.534-1.263-42.281-19.73-44-42C774.143,824.938,792.627,802.562,818,800Z" transform="translate(-775.875 -769.281)"/>
    <path class="cls-4" d="M1192,906c45.01-2.808,89.65,12.658,120,46,18.17,19.958,31.92,48.04,36,85,4.11,37.27-3.23,71.88-21,99-27.91,42.59-77.28,64.96-128,65-49.78,1.8-98.93-17.34-129-57-15.95-21.03-26.38-48.6-28-81-1.51-30.15,4.69-86.329,52-125C1121.51,915.511,1156.4,904.747,1192,906Zm2,84c13.68,0.047,26.78,4.329,37,13,17.75,15.06,19.82,39.43,19,53-0.74,12.18-5.3,37.28-26,51a56.176,56.176,0,0,1-27,9c-17.4-.05-34.29-6.6-45-20-3.76-4.71-10.74-20.35-11-40-0.36-27.08,9.72-44.94,16-51C1166.79,995.552,1179.97,990.622,1194,990Z" transform="translate(-775.875 -769.281)"/>
    <path class="cls-4" d="M1354,840c-2.23-28.014,19.14-52.337,46-54,25.44-1.575,48.76,17.609,52,44l9,108a108.338,108.338,0,0,1,30-23c20.53-10.624,43.84-14.192,67-11a111.5,111.5,0,0,1,39,11c59.45,29.546,70.72,100.42,72,130,1.81,41.86-11.49,112.97-66,140a100,100,0,0,1-38,10c-30.71,5.17-62.51.05-85-20a80.588,80.588,0,0,1-15-18c1.68,15.95-4.71,31.38-17,40-17.55,12.3-42.85,7.73-55-7a37.187,37.187,0,0,1-8-20Q1369.505,1005,1354,840Zm164,151a50.042,50.042,0,0,1,26,7c26.54,16.21,25.89,53.75,25,65-1.33,16.86-8.44,29.92-12,34-9.67,11.08-23.99,16.72-39,17a44.942,44.942,0,0,1-20-4c-26.86-12.47-30.55-49.57-31-61-0.79-20.05,6.12-35.24,10-40C1486.85,996.9,1502.21,990.979,1518,991Z" transform="translate(-775.875 -769.281)"/>
    <path id="Shape_11_copy" data-name="Shape 11 copy" class="cls-4" d="M1706.85,814.622c2.75-27.968,28.08-48.135,54.81-45.028,25.32,2.942,44.88,25.942,43.41,52.492q-5.1,53.946-10.21,107.892a108.311,108.311,0,0,1,33.59-17.341c22.09-6.83,45.65-6.227,67.89,1.005a111.5,111.5,0,0,1,36.44,17.714c53.3,39.581,51.88,111.334,47.91,140.674-5.6,41.52-31.25,109.16-89.68,126.14a99.888,99.888,0,0,1-39.17,3.13c-31.14-.33-61.54-10.98-80.13-34.69a80.527,80.527,0,0,1-11.59-20.37c-1.16,16-10.17,30.06-23.79,36.37-19.45,9.01-43.54.04-52.9-16.6a37.193,37.193,0,0,1-4.35-21.1Q1692.97,979.76,1706.85,814.622ZM1833,991c10.26-.021,19.9,2.554,28,8,20.86,14.03,22.46,43,22,55-0.42,11.11-3.98,41.06-27,54a48.372,48.372,0,0,1-23,6c-17.77-.02-35.12-6.86-45-21-2.97-4.26-8.7-20.53-7-40,2.51-28.68,11.65-49.56,29-58A44.215,44.215,0,0,1,1833,991Z" transform="translate(-775.875 -769.281)"/>
    <path class="cls-4" d="M1996,834c-3.63-28.3,16.07-53.4,41-57,27.29-3.945,55.24,18.664,56,50q13.5,156.5,27,313c1.85,26.35-16.8,49.31-41,53-26.55,4.05-53.12-16.09-56-45Q2009.5,990.995,1996,834Z" transform="translate(-775.875 -769.281)"/>
    <path class="cls-4" d="M2365,1013a62.315,62.315,0,0,0,15-6c11.18-6.28,18.03-14.8,20-19,5.01-10.692,4.09-23.1-1-34-8.99-28.605-27.42-53.312-53-69-35.07-21.514-78.43-23.051-116-7-38.84,12.909-71.05,41.111-87,79-19.64,46.64-6.59,94.56,8,124,15.64,31.56,36.46,51.8,58,64,35.54,20.13,77.96,22.79,117,10a235.934,235.934,0,0,0,71-31c28.67-21,35.45-52.69,24-70-6.65-10.05-19.09-15.73-31-17a53.385,53.385,0,0,0-7,1c-9.8,2.07-17.79,7.18-22,10-5.89,3.95-22.28,14.31-28,18-15.56,7.86-32.32,12.28-49,12-15.5-.26-27.05-5.61-31-9a37.058,37.058,0,0,1-10-14Q2304.005,1034,2365,1013Zm-141-7a42.9,42.9,0,0,1-2-21c4.03-24.36,31.03-44.05,55-41a40.076,40.076,0,0,1,23,11,39.617,39.617,0,0,1,11,21Z" transform="translate(-775.875 -769.281)"/>
  </g>
  <g id="kids">
    <path id="Shape_14_copy" data-name="Shape 14 copy" class="cls-7" d="M2344,1411a18.691,18.691,0,0,0,15,1,18.1,18.1,0,0,0,8-6,64.857,64.857,0,0,0,7-12,64.041,64.041,0,0,0,4-12,18.567,18.567,0,0,0-10-22,107.141,107.141,0,0,0-51-10c-48.13.52-83.03,18.47-93,45a49.073,49.073,0,0,0-3,19c-0.02,21.89,7.26,43.19,23,58,5.81,5.47,14.76,11.37,27,16a93.308,93.308,0,0,0,32,6c17.06,0.42,33.86,2.2,35,8,0.53,2.71-2.43,5.84-7,9a58.611,58.611,0,0,1-16,4c-9.16.94-18.39-.77-31-5-5.41-1.82-10.68-3.79-16-6a21.776,21.776,0,0,0-16-1,21.558,21.558,0,0,0-10,7c-1.17,1.76-2.26,3.55-3.27,5.41-0.99,1.82-1.9,3.69-2.73,5.59-1.69,3.88-4.03,7.88-5,12-2.7,5.7-1.94,12.36,1,18a19.28,19.28,0,0,0,8,8,107.2,107.2,0,0,0,61,14,281.373,281.373,0,0,0,30-3c15.03-2.29,29.14-5.05,44-15,11.56-7.73,18.41-16.31,22-23a60.251,60.251,0,0,0,7-31,63.823,63.823,0,0,0-7-34c-11.97-22.58-37.25-35.21-64-36q-12-.495-24-1c-14.87-1.14-23.57-6-24-11q-0.24-2.82,3-6A68.718,68.718,0,0,1,2344,1411Z" transform="translate(-775.875 -769.281)"/>
    <path class="cls-8" d="M2362,1406a18.691,18.691,0,0,0,15,1,18.1,18.1,0,0,0,8-6,64.857,64.857,0,0,0,7-12,64.041,64.041,0,0,0,4-12,18.567,18.567,0,0,0-10-22,107.141,107.141,0,0,0-51-10c-48.13.52-83.03,18.47-93,45a49.073,49.073,0,0,0-3,19c-0.02,21.89,7.26,43.19,23,58,5.81,5.47,14.76,11.37,27,16a93.308,93.308,0,0,0,32,6c17.06,0.42,33.86,2.2,35,8,0.53,2.71-2.43,5.84-7,9a58.611,58.611,0,0,1-16,4c-9.16.94-18.39-.77-31-5-5.41-1.82-10.68-3.79-16-6a21.776,21.776,0,0,0-16-1,21.558,21.558,0,0,0-10,7c-1.17,1.76-2.26,3.55-3.27,5.41-0.99,1.82-1.9,3.69-2.73,5.59-1.69,3.88-4.03,7.88-5,12-2.7,5.7-1.94,12.36,1,18a19.28,19.28,0,0,0,8,8,107.2,107.2,0,0,0,61,14,281.373,281.373,0,0,0,30-3c15.03-2.29,29.14-5.05,44-15,11.56-7.73,18.41-16.31,22-23a60.251,60.251,0,0,0,7-31,63.823,63.823,0,0,0-7-34c-11.97-22.58-37.25-35.21-64-36q-12-.495-24-1c-14.87-1.14-23.57-6-24-11q-0.24-2.82,3-6A68.718,68.718,0,0,1,2362,1406Z" transform="translate(-775.875 -769.281)"/>
    <path id="Shape_15_copy" data-name="Shape 15 copy" class="cls-7" d="M2183,1297a27.209,27.209,0,0,0-29-25q-12.495,1.995-25,4a24.349,24.349,0,0,0-13,9,24.732,24.732,0,0,0-4,20q5.505,45.495,11,91a54.762,54.762,0,0,0-38-14,82.431,82.431,0,0,0-33,6c-13.36,5.45-30.29,17.46-45,43-13.23,22.97-19.61,50.8-14,78,8.03,38.98,35.53,64.42,61,76a104.875,104.875,0,0,0,35,9,66.886,66.886,0,0,0,57-26,18.173,18.173,0,0,0,3,8c4.79,6.93,14.99,10.37,27,8l20-3a23.664,23.664,0,0,0,15-11,23.332,23.332,0,0,0,3-14Q2198.505,1426.505,2183,1297Zm-91,154c20.72-1.9,38.62,12.67,41,31,1.99,15.3-7.12,31.25-23,38-19.7,5.99-39.85-4.37-46-21C2057.03,1480.17,2069.12,1456.32,2092,1451Z" transform="translate(-775.875 -769.281)"/>
    <path class="cls-8" d="M2202,1293a27.209,27.209,0,0,0-29-25q-12.495,1.995-25,4a24.349,24.349,0,0,0-13,9,24.732,24.732,0,0,0-4,20q5.505,45.495,11,91a54.762,54.762,0,0,0-38-14,82.431,82.431,0,0,0-33,6c-13.36,5.45-30.29,17.46-45,43-13.23,22.97-19.61,50.8-14,78,8.03,38.98,35.53,64.42,61,76a104.875,104.875,0,0,0,35,9,66.886,66.886,0,0,0,57-26,18.173,18.173,0,0,0,3,8c4.79,6.93,14.99,10.37,27,8l20-3a23.664,23.664,0,0,0,15-11,23.332,23.332,0,0,0,3-14Q2217.505,1422.505,2202,1293Zm-91,154c20.72-1.9,38.62,12.67,41,31,1.99,15.3-7.12,31.25-23,38-19.7,5.99-39.85-4.37-46-21C2076.03,1476.17,2088.12,1452.32,2111,1447Z" transform="translate(-775.875 -769.281)"/>
    <path id="Shape_17_copy" data-name="Shape 17 copy" class="cls-7" d="M1894,1430a23.738,23.738,0,0,1,6-19,23.246,23.246,0,0,1,13-7q13.995-1.995,28-4a24.325,24.325,0,0,1,23,21q10.005,79.995,20,160a24.444,24.444,0,0,1-5,21,23.974,23.974,0,0,1-14,8c-3.98.85-7.96,1.51-12,2a137.887,137.887,0,0,1-17,1,25.315,25.315,0,0,1-13-5,26.2,26.2,0,0,1-10-19Q1903.505,1509.5,1894,1430Zm15-128c-11.54,1.39-22.6,7.18-26,17a20.03,20.03,0,0,0-1,8,120.722,120.722,0,0,0,2,20c2.36,12.71,6.52,20.14,11,23,4.24,2.71,9.43,3.61,15,3a88.041,88.041,0,0,0,26-3c7.17-2.05,11.24-4.61,14-8a23.592,23.592,0,0,0,5-15,107.293,107.293,0,0,0-2-22c-1.96-9.93-4.83-15.64-9-19-2.47-1.99-9.79-4.65-19-5A80.511,80.511,0,0,0,1909,1302Z" transform="translate(-775.875 -769.281)"/>
    <path class="cls-8" d="M1912,1425a23.738,23.738,0,0,1,6-19,23.246,23.246,0,0,1,13-7q13.995-1.995,28-4a24.325,24.325,0,0,1,23,21q10.005,79.995,20,160a24.444,24.444,0,0,1-5,21,23.974,23.974,0,0,1-14,8c-3.98.85-7.96,1.51-12,2a137.887,137.887,0,0,1-17,1,25.315,25.315,0,0,1-13-5,26.2,26.2,0,0,1-10-19Q1921.505,1504.5,1912,1425Zm15-128c-11.54,1.39-22.6,7.18-26,17a20.03,20.03,0,0,0-1,8,120.722,120.722,0,0,0,2,20c2.36,12.71,6.52,20.14,11,23,4.24,2.71,9.43,3.61,15,3a88.041,88.041,0,0,0,26-3c7.17-2.05,11.24-4.61,14-8a23.592,23.592,0,0,0,5-15,107.293,107.293,0,0,0-2-22c-1.96-9.93-4.83-15.64-9-19-2.47-1.99-9.79-4.65-19-5A80.511,80.511,0,0,0,1927,1297Z" transform="translate(-775.875 -769.281)"/>
    <path id="Shape_18_copy" data-name="Shape 18 copy" class="cls-7" d="M1675,1357a24.8,24.8,0,0,1,3-17,25.273,25.273,0,0,1,19-12q13.005-1.005,26-2a24.049,24.049,0,0,1,22,24q8.505,67.5,17,135a447.6,447.6,0,0,1,34-40c4.6-4.81,9.19-9.4,14-14,7.31-6.56,17.05-10.69,26-8a19.988,19.988,0,0,1,6,3q5.19,3.765,10,8a134.554,134.554,0,0,1,12,12,23.931,23.931,0,0,1,5,15,23.676,23.676,0,0,1-3,11q-22.005,24.495-44,49l69,45a22.072,22.072,0,0,1,6,8c3.39,7.82,1.63,16.81-3,24q-7.005,10.5-14,21a24.315,24.315,0,0,1-8,5c-8.6,3.24-18.19,1.09-26-4-5.04-3.32-10-6.62-15-10-20.16-13.62-39.52-27.4-59-42q3,23.505,6,47a21.235,21.235,0,0,1-8,16,20.178,20.178,0,0,1-10,4,70.576,70.576,0,0,1-34,4,22.63,22.63,0,0,1-8-3c-7.72-4.77-11.55-13.82-12-23Q1690.505,1485.005,1675,1357Z" transform="translate(-775.875 -769.281)"/>
    <path class="cls-8" d="M1695,1352a24.8,24.8,0,0,1,3-17,25.273,25.273,0,0,1,19-12q13.005-1.005,26-2a24.049,24.049,0,0,1,22,24q8.505,67.5,17,135a447.6,447.6,0,0,1,34-40c4.6-4.81,9.19-9.4,14-14,7.31-6.56,17.05-10.69,26-8a19.988,19.988,0,0,1,6,3c3.47,2.51,6.79,5.17,10,8a135.9,135.9,0,0,1,12,12,23.931,23.931,0,0,1,5,15,23.676,23.676,0,0,1-3,11q-22.005,24.495-44,49l69,45a22.072,22.072,0,0,1,6,8c3.39,7.82,1.63,16.81-3,24q-7.005,10.5-14,21a24.315,24.315,0,0,1-8,5c-8.6,3.24-18.19,1.09-26-4-5.04-3.32-10-6.62-15-10-20.16-13.62-39.52-27.4-59-42q3,23.505,6,47a21.235,21.235,0,0,1-8,16,20.178,20.178,0,0,1-10,4,70.576,70.576,0,0,1-34,4,22.63,22.63,0,0,1-8-3c-7.72-4.77-11.55-13.82-12-23Q1710.505,1480.005,1695,1352Z" transform="translate(-775.875 -769.281)"/>
  </g>
</svg>
