<svg id="star" xmlns="http://www.w3.org/2000/svg" width="924.63" height="769.905" viewBox="0 0 924.63 769.905">
  <defs>
    <style>
      .cls-1 {
        fill: #00d7ed;
      }

      .cls-1, .cls-2 {
        fill-rule: evenodd;
      }

      .cls-2 {
        fill: #00c2cc;
        opacity: 0.5;
      }
    </style>
  </defs>
  <path class="cls-1" d="M1245,1315c-18.15-15.81-28.44-39.63-25-64a70.291,70.291,0,0,1,25-44,187.543,187.543,0,0,1,15-13,191.835,191.835,0,0,1,19-13c10.97-6.63,22.61-13.23,32-18,18.16-9.21,34.86-18.74,53-28,11.32-5.78,22.54-12.39,34-18a227.176,227.176,0,0,0,105-107c2.84-5.93,5.47-11.849,8-18,6.42-15.605,12.68-36.642,16-46,6.79-19.131,15.39-37.616,22-47,13.26-18.816,27.4-29.9,39-36a105.031,105.031,0,0,1,36-11c11.33-1.433,31.62-.628,53,5,5.57,1.466,10.89,3.128,16,5,47.83,17.53,118.69,71.709,193,95a312.772,312.772,0,0,0,97,14,240.5,240.5,0,0,1,69,10c23.5,7.053,42.29,17.358,53,26,18.46,14.9,29.09,31.91,33,42,9.22,23.8,7.4,50.19-3,74a667.9,667.9,0,0,1-33,69c-6.89,12.46-31.39,56.85-39,99-3.47,19.23-3.33,36.99,3,55,4.67,13.29,11.67,22.09,18,31,9.01,12.67,22.3,43.05,31,75a145.566,145.566,0,0,1,5,27c2.45,29.36-3.44,52.44-13,70-5.59,10.26-20.98,28.94-43,44a169.48,169.48,0,0,1-57,25,234.581,234.581,0,0,1-83-1c-16.79-3.25-44.75-13.24-71-25-9.82-4.4-19.34-10-29-15a205.876,205.876,0,0,0-143-28c-35.83,5.14-76.84,11.13-106,16-13.2,2.2-56.3,7.14-94,0-35.7-6.76-56.87-18.96-72-34a112.958,112.958,0,0,1-20-27,181.538,181.538,0,0,1-9-24c-4.08-13.79-4.92-25.21-9-39-3.95-13.36-8.94-24.71-14-33a124.571,124.571,0,0,0-17.69-22.52c-18.46-18.85-37.06-28.02-56.31-40.48A263.272,263.272,0,0,1,1245,1315Z" transform="translate(-1219.34 -851.375)"/>
  <path class="cls-2" d="M1394,1512a108.844,108.844,0,0,0,18,22c12.89,12.11,37.17,26.51,74,32,6.37,0.95,16.72,1.62,26,2,10.23,0.42,20.52.42,31,0a438.831,438.831,0,0,0,75-10c23.63-3.64,47.36-7.06,70-10a210.525,210.525,0,0,1,31-2,200.047,200.047,0,0,1,54,8,197.788,197.788,0,0,1,49,22,458.274,458.274,0,0,0,45,22c16.1,6.8,32.77,12.94,45,16,41.12,10.31,76.19,8.14,97,3a175.522,175.522,0,0,0,63-30c13.73-10.3,24.68-22.08,30-30,13.31-19.82,19.53-43.37,19-68a315.528,315.528,0,0,0-29-100c-2.82-4.88-5.81-9.53-9-14-4.58-6.41-8.4-11-12-18a88.867,88.867,0,0,1-6-15c-3.16-10.49-4.78-24.53-3-42,2.87-28.15,15.14-59.97,29-86q15.495-31.005,31-62c-96.65,122.82-221.27,219.76-364,282A939.26,939.26,0,0,1,1394,1512Z" transform="translate(-1219.34 -851.375)"/>
</svg>
